<svg height="512" viewBox="0 0 60 56" width="512" xmlns="http://www.w3.org/2000/svg"><g id="Page-1" fill="none" fill-rule="evenodd"><g id="001---Chat-Bot" fill-rule="nonzero"><path id="Shape" d="m53 35c.0073437 1.338476-.086255 2.6756002-.28 4-1.69 11.9-11.22 16-22.72 16s-21.03-4.1-22.72-16c-.19374496-1.3243998-.28734366-2.661524-.28-4-.01207043-2.7146692.40300356-5.4143374 1.23-8 2.9132684-9.5654616 11.7710258-16.0755268 21.77-16 9.9989742-.0755268 18.8567316 6.4345384 21.77 16 .8269964 2.5856626 1.2420704 5.2853308 1.23 8z" fill="#f5f5f5"/><path id="Shape" d="m51.77 27c-2.9132684-9.5654616-11.7710258-16.0755268-21.77-16-.5 0-1 .028-1.5.059 9.4278648.5455291 17.5174182 6.9074221 20.27 15.941.8269964 2.5856626 1.2420704 5.2853308 1.23 8 .0073437 1.338476-.086255 2.6756002-.28 4-1.62 11.377-10.402 15.614-21.22 15.966.5.016.994.034 1.5.034 11.5 0 21.03-4.1 22.72-16 .193745-1.3243998.2873437-2.661524.28-4 .0120704-2.7146692-.4030036-5.4143374-1.23-8z" fill="#cfd8dc"/><rect id="Rectangle-path" fill="#607d8b" height="22" rx="11" width="38" x="11" y="24"/><path id="Shape" d="m38 24h-3c6.0751322.0000001 10.9999998 4.9248678 10.9999998 11s-4.9248676 10.9999999-10.9999998 11h3c6.0751322-.0000001 10.9999998-4.9248678 10.9999998-11s-4.9248676-10.9999999-10.9999998-11z" fill="#37474f"/><circle id="Oval" cx="19" cy="33" fill="#00bcd4" r="3"/><circle id="Oval" cx="41" cy="33" fill="#00bcd4" r="3"/><path id="Shape" d="m27 37h6c.5522847 0 1 .4477153 1 1 0 2.209139-1.790861 4-4 4s-4-1.790861-4-4c0-.5522847.4477153-1 1-1z" fill="#00bcd4"/><path id="Shape" d="m7 35c-.00734366 1.338476.08625504 2.6756002.28 4h-2.28c-2.209139 0-4-1.790861-4-4v-4c-.00147026-1.8238506 1.23335796-3.416779 3-3.87.32573075-.0893041.66226279-.1330533 1-.13h3.23c-.82699644 2.5856626-1.24207043 5.2853308-1.23 8z" fill="#00bcd4"/><path id="Shape" d="m59 31v4c0 2.209139-1.790861 4-4 4h-2.28c.193745-1.3243998.2873437-2.661524.28-4 .0120704-2.7146692-.4030036-5.4143374-1.23-8h3.23c.3377372-.0030533.6742693.0406959 1 .13 1.766642.453221 3.0014703 2.0461494 3 3.87z" fill="#00bcd4"/><path id="Shape" d="m56 27.13c-.3257307-.0893041-.6622628-.1330533-1-.13h-3c.3377372-.0030533.6742693.0406959 1 .13 1.766642.453221 3.0014703 2.0461494 3 3.87v4c-.002983 1.9260341-1.3781308 3.5764637-3.272 3.927 0 .023 0 .049-.008.073h2.28c2.209139 0 4-1.790861 4-4v-4c.0014703-1.8238506-1.233358-3.416779-3-3.87z" fill="#00838f"/><path id="Shape" d="m56 27v.13c-.3257307-.0893041-.6622628-.1330533-1-.13h-3c0-12.1502645-9.8497355-22-22-22s-22 9.8497355-22 22h-3c-.33773721-.0030533-.67426925.0406959-1 .13v-.13c0-14.3594035 11.6405965-26 26-26s26 11.6405965 26 26z" fill="#02a9f4"/><path id="Shape" d="m4 27.13c.32573075-.0893041.66226279-.1330533 1-.13h-1z" fill="#0377bc"/><path id="Shape" d="m48.38 8.62c-4.8666059-4.88756545-11.4827514-7.63049408-18.38-7.62-.5 0-1 .018-1.5.046 13.7497973.80108646 24.4920778 12.1808884 24.5 25.954h2c.3377372-.0030533.6742693.0406959 1.00003.13l-.00003-.13c.0104941-6.8972486-2.7324346-13.5133941-7.62-18.38z" fill="#0377bc"/><g fill="#000"><path id="Shape" d="m19 29c-2.209139 0-4 1.790861-4 4s1.790861 4 4 4 4-1.790861 4-4-1.790861-4-4-4zm0 6c-1.1045695 0-2-.8954305-2-2s.8954305-2 2-2 2 .8954305 2 2-.8954305 2-2 2z"/><path id="Shape" d="m41 37c2.209139 0 4-1.790861 4-4s-1.790861-4-4-4-4 1.790861-4 4 1.790861 4 4 4zm0-6c1.1045695 0 2 .8954305 2 2s-.8954305 2-2 2-2-.8954305-2-2 .8954305-2 2-2z"/><path id="Shape" d="m30 43c2.7600532-.0033061 4.9966939-2.2399468 5-5 0-1.1045695-.8954305-2-2-2h-6c-1.1045695 0-2 .8954305-2 2 .0033061 2.7600532 2.2399468 4.9966939 5 5zm3-5c0 1.6568542-1.3431458 3-3 3s-3-1.3431458-3-3z"/><path id="Shape" d="m56.986 26.416c-.3220692-14.6729205-12.3090453-26.39967091-26.9855-26.39967091s-26.66343083 11.72675041-26.9855 26.39967091c-1.82847857.7909023-3.01297028 2.5918012-3.015 4.584v4c.00330612 2.7600532 2.23994685 4.9966939 5 5h1.421c1.856 10.491 9.909 16 23.579 16s21.723-5.509 23.579-16h1.421c2.7600532-.0033061 4.9966939-2.2399468 5-5v-4c-.0034224-1.9914907-1.1869645-3.7915428-3.014-4.584zm-26.986-24.416c13.4140532.00832278 24.4332621 10.5969284 24.976 24h-2.025c-.5261741-12.3004169-10.6513342-22.00171338-22.963-22.00171338s-22.43682594 9.70129648-22.963 22.00171338h-2c.55030156-13.3992724 11.5644422-23.98343166 24.975-24zm20.139 19.034c-4.3151098-6.9535056-11.9560793-11.13993278-20.139-11.034-8.1654403-.10614427-15.7927492 4.0622731-20.113 10.992 2.6611627-8.8994728 10.8528292-14.99337896 20.1416563-14.98368675s17.4677586 6.12067995 20.1103437 15.02568675zm-45.139 16.966c-1.65685425 0-3-1.3431458-3-3v-4c0-1.6568542 1.34314575-3 3-3h1.886c-.59190582 2.2861432-.8896441 4.6384772-.886 7 0 1.042.064 2.033.159 3zm25 16c-13.84 0-21.2-5.756-21.928-17.095l2.393 1.368c1.4669091 5.1570153 6.1734196 8.7178057 11.535 8.727h16c6.627417 0 12-5.372583 12-12s-5.372583-12-12-12h-16c-6.624447.0071648-11.9928352 5.375553-12 12 0 .245.022.483.037.724l-2.027-1.158c.207-12.895 9.59-22.566 21.99-22.566 12.542 0 22 9.888 22 23 0 12.607-7.4 19-22 19zm-7-13h-2.938c-.5223656-.0015122-1.0352834-.1393934-1.488-.4l-6.374-3.642c-.5889559-2.9366565.1703637-5.9826407 2.0688721-8.2992085 1.8985085-2.3165677 4.7359952-3.6594212 7.7311279-3.6587915h16c5.5228475 0 10 4.4771525 10 10s-4.4771525 10-10 10h-16c-3.6176456-.0031692-6.9515044-1.9599662-8.718-5.117l4.3 2.458c.7554046.431322 1.6101297.6584445 2.48.659h2.938c.5522847 0 1-.4477153 1-1s-.4477153-1-1-1zm35-6c0 1.6568542-1.3431458 3-3 3h-1.159c.095-.967.159-1.958.159-3 .0036441-2.3615228-.2940942-4.7138568-.886-7h1.886c1.6568542 0 3 1.3431458 3 3z"/><path id="Shape" d="m33 19h-6c-.5522847 0-1 .4477153-1 1s.4477153 1 1 1h6c.5522847 0 1-.4477153 1-1s-.4477153-1-1-1z"/><path id="Shape" d="m29 18h2c.5522847 0 1-.4477153 1-1s-.4477153-1-1-1h-2c-.5522847 0-1 .4477153-1 1s.4477153 1 1 1z"/></g></g></g></svg>